<svg width="16" height="16" viewBox="0 0 16 16" fill="none" xmlns="http://www.w3.org/2000/svg">
<g clip-path="url(#clip0_103039_3502)">
<path d="M7.9999 15.2379C12.1973 15.2379 15.5999 11.9973 15.5999 7.99981C15.5999 4.00232 12.1973 0.761719 7.9999 0.761719C3.80254 0.761719 0.399902 4.00232 0.399902 7.99981C0.399902 11.9973 3.80254 15.2379 7.9999 15.2379Z" fill="#69D784" stroke="#69D784"/>
<path fill-rule="evenodd" clip-rule="evenodd" d="M7.20641 10.1859L6.92001 9.9131L6.63361 10.1859C6.67121 10.2217 6.71585 10.2501 6.76499 10.2695C6.81414 10.2889 6.86681 10.2989 6.92001 10.2989C6.97321 10.2989 7.02589 10.2889 7.07503 10.2695C7.12417 10.2501 7.16882 10.2217 7.20641 10.1859ZM6.92001 9.36758L5.04641 7.58319C4.97045 7.51085 4.86743 7.47021 4.76001 7.47021C4.65259 7.47021 4.54957 7.51085 4.47361 7.58319C4.39765 7.65554 4.35498 7.75365 4.35498 7.85596C4.35498 7.95826 4.39765 8.05638 4.47361 8.12872L6.63361 10.1859L6.92001 9.9131L7.20641 10.1859L11.3736 6.2171C11.4112 6.18128 11.4411 6.13876 11.4614 6.09195C11.4818 6.04515 11.4922 5.99499 11.4922 5.94434C11.4922 5.89368 11.4818 5.84352 11.4614 5.79672C11.4411 5.74992 11.4112 5.70739 11.3736 5.67158C11.336 5.63576 11.2914 5.60734 11.2422 5.58796C11.1931 5.56857 11.1404 5.55859 11.0872 5.55859C11.034 5.55859 10.9814 5.56857 10.9322 5.58796C10.8831 5.60734 10.8384 5.63576 10.8008 5.67158L6.92001 9.36758Z" fill="white"/>
<path d="M6.92001 9.91386L7.20641 10.1859M7.20641 10.1859L6.92001 9.9131L6.63361 10.1859M7.20641 10.1859C7.16882 10.2217 7.12417 10.2501 7.07503 10.2695C7.02589 10.2889 6.97321 10.2989 6.92001 10.2989C6.86681 10.2989 6.81414 10.2889 6.76499 10.2695C6.71585 10.2501 6.67121 10.2217 6.63361 10.1859M7.20641 10.1859L11.3736 6.2171C11.4112 6.18128 11.4411 6.13876 11.4614 6.09195C11.4818 6.04515 11.4922 5.99499 11.4922 5.94434C11.4922 5.89368 11.4818 5.84352 11.4614 5.79672C11.4411 5.74992 11.4112 5.70739 11.3736 5.67158C11.336 5.63576 11.2914 5.60734 11.2422 5.58796C11.1931 5.56857 11.1404 5.55859 11.0872 5.55859C11.034 5.55859 10.9814 5.56857 10.9322 5.58796C10.8831 5.60734 10.8384 5.63576 10.8008 5.67158L6.92001 9.36758L5.04641 7.58319C4.97045 7.51085 4.86743 7.47021 4.76001 7.47021C4.65259 7.47021 4.54957 7.51085 4.47361 7.58319C4.39765 7.65554 4.35498 7.75365 4.35498 7.85596C4.35498 7.95826 4.39765 8.05638 4.47361 8.12872L6.63361 10.1859" stroke="white" stroke-linecap="round" stroke-linejoin="round"/>
</g>
<defs>
<clipPath id="clip0_103039_3502">
<rect width="16" height="16" fill="white"/>
</clipPath>
</defs>
</svg>
