<svg width="16" height="16" viewBox="0 0 16 16" fill="none" xmlns="http://www.w3.org/2000/svg">
<path d="M12.6666 2.99405C12.6667 3.24193 12.6115 3.48672 12.505 3.71058C12.3985 3.93444 12.2435 4.13173 12.0511 4.28807C11.8587 4.44442 11.6339 4.55588 11.393 4.61435C11.1521 4.67282 10.9012 4.67681 10.6586 4.62605L9.80524 6.03738C10.082 6.29127 10.3018 6.60087 10.4502 6.94581C10.5987 7.29075 10.6724 7.66322 10.6666 8.03871L11.5306 8.21271C11.7186 7.86171 12.0261 7.58963 12.3974 7.44572C12.7686 7.30181 13.1792 7.29558 13.5546 7.42816C13.9301 7.56073 14.2457 7.82336 14.4443 8.16849C14.6429 8.51362 14.7114 8.91845 14.6373 9.30969C14.5633 9.70094 14.3516 10.0527 14.0406 10.3014C13.7296 10.5501 13.3398 10.6792 12.9419 10.6654C12.5439 10.6516 12.1641 10.4957 11.8711 10.2261C11.5781 9.95645 11.3913 9.59082 11.3446 9.19538L10.4652 9.01871C10.2353 9.57292 9.82585 10.0338 9.30258 10.3274L9.63258 11.3354H9.66658C10.0633 11.3357 10.447 11.4775 10.7485 11.7353C11.0501 11.9932 11.2498 12.3501 11.3116 12.7421C11.3735 13.134 11.2936 13.5351 11.0862 13.8733C10.8788 14.2115 10.5575 14.4647 10.1801 14.5872C9.80277 14.7098 9.39407 14.6937 9.02752 14.5418C8.66097 14.39 8.36061 14.1123 8.18045 13.7588C8.00029 13.4053 7.95214 12.9992 8.04468 12.6133C8.13721 12.2275 8.36434 11.8874 8.68524 11.654L8.35391 10.6434C7.8801 10.7073 7.3978 10.6425 6.95767 10.4558C6.51754 10.269 6.13582 9.96723 5.85258 9.58205L4.65658 10.1467C4.7012 10.5424 4.60269 10.9409 4.37889 11.2703C4.15509 11.5996 3.82078 11.8379 3.43648 11.9421C3.05217 12.0463 2.64327 12.0094 2.28378 11.8382C1.92429 11.667 1.63798 11.3728 1.47666 11.0087C1.31534 10.6447 1.28967 10.235 1.40431 9.85364C1.51895 9.47233 1.76632 9.14465 2.10164 8.92993C2.43696 8.71521 2.83807 8.62763 3.23237 8.68305C3.62667 8.73847 3.9881 8.93321 4.25124 9.23205L5.42058 8.68005C5.31305 8.27061 5.30436 7.84149 5.39523 7.42804C5.48611 7.01459 5.67394 6.62865 5.94324 6.30205L5.28258 5.54871C4.9126 5.69586 4.50218 5.70569 4.12558 5.57643C3.74899 5.44718 3.43111 5.18737 3.22948 4.84404C3.02785 4.50071 2.95579 4.09654 3.02635 3.70468C3.09691 3.31282 3.30543 2.95917 3.61415 2.70773C3.92287 2.4563 4.31141 2.32369 4.70944 2.33392C5.10747 2.34414 5.48869 2.49652 5.78409 2.76348C6.0795 3.03043 6.26958 3.39432 6.31993 3.78928C6.37028 4.18425 6.27757 4.58419 6.05858 4.91671L6.71324 5.66338C7.10724 5.44612 7.54999 5.33257 7.99991 5.33338C8.33658 5.33338 8.65924 5.39605 8.95591 5.51005L9.78591 4.13671C9.5996 3.93864 9.46458 3.69799 9.39264 3.43576C9.32069 3.17352 9.314 2.89767 9.37315 2.63225C9.4323 2.36684 9.5555 2.11993 9.73199 1.91306C9.90848 1.70619 10.1329 1.54565 10.3857 1.44543C10.6385 1.34522 10.9119 1.30838 11.1822 1.33813C11.4525 1.36788 11.7114 1.46331 11.9364 1.6161C12.1613 1.76889 12.3455 1.97439 12.4727 2.21469C12.6 2.45499 12.6666 2.72212 12.6666 2.99405ZM11.6666 2.99405C11.6666 2.81723 11.5963 2.64767 11.4713 2.52264C11.3463 2.39762 11.1767 2.32738 10.9999 2.32738C10.8231 2.32738 10.6535 2.39762 10.5285 2.52264C10.4035 2.64767 10.3332 2.81723 10.3332 2.99405C10.3332 3.17086 10.4035 3.34043 10.5285 3.46545C10.6535 3.59047 10.8231 3.66071 10.9999 3.66071C11.1767 3.66071 11.3463 3.59047 11.4713 3.46545C11.5963 3.34043 11.6666 3.17086 11.6666 2.99405ZM4.66658 4.66671C4.84339 4.66671 5.01296 4.59647 5.13798 4.47145C5.263 4.34643 5.33324 4.17686 5.33324 4.00005C5.33324 3.82323 5.263 3.65367 5.13798 3.52864C5.01296 3.40362 4.84339 3.33338 4.66658 3.33338C4.48976 3.33338 4.32019 3.40362 4.19517 3.52864C4.07015 3.65367 3.99991 3.82323 3.99991 4.00005C3.99991 4.17686 4.07015 4.34643 4.19517 4.47145C4.32019 4.59647 4.48976 4.66671 4.66658 4.66671ZM7.99991 9.66671C8.44194 9.66671 8.86586 9.49112 9.17842 9.17856C9.49098 8.866 9.66658 8.44207 9.66658 8.00005C9.66658 7.55802 9.49098 7.13409 9.17842 6.82153C8.86586 6.50897 8.44194 6.33338 7.99991 6.33338C7.55788 6.33338 7.13396 6.50897 6.8214 6.82153C6.50884 7.13409 6.33324 7.55802 6.33324 8.00005C6.33324 8.44207 6.50884 8.866 6.8214 9.17856C7.13396 9.49112 7.55788 9.66671 7.99991 9.66671ZM3.66658 10.3334C3.66658 10.1566 3.59634 9.987 3.47131 9.86197C3.34629 9.73695 3.17672 9.66671 2.99991 9.66671C2.8231 9.66671 2.65353 9.73695 2.5285 9.86197C2.40348 9.987 2.33324 10.1566 2.33324 10.3334C2.33324 10.5102 2.40348 10.6798 2.5285 10.8048C2.65353 10.9298 2.8231 11 2.99991 11C3.17672 11 3.34629 10.9298 3.47131 10.8048C3.59634 10.6798 3.66658 10.5102 3.66658 10.3334ZM10.3332 13.0014C10.3332 12.8246 10.263 12.655 10.138 12.53C10.013 12.405 9.84339 12.3347 9.66658 12.3347C9.48977 12.3347 9.3202 12.405 9.19517 12.53C9.07015 12.655 8.99991 12.8246 8.99991 13.0014C8.99991 13.1782 9.07015 13.3478 9.19517 13.4728C9.3202 13.5978 9.48977 13.668 9.66658 13.668C9.84339 13.668 10.013 13.5978 10.138 13.4728C10.263 13.3478 10.3332 13.1782 10.3332 13.0014ZM12.9999 9.66671C13.1767 9.66671 13.3463 9.59647 13.4713 9.47145C13.5963 9.34643 13.6666 9.17686 13.6666 9.00005C13.6666 8.82323 13.5963 8.65367 13.4713 8.52864C13.3463 8.40362 13.1767 8.33338 12.9999 8.33338C12.8231 8.33338 12.6535 8.40362 12.5285 8.52864C12.4035 8.65367 12.3332 8.82323 12.3332 9.00005C12.3332 9.17686 12.4035 9.34643 12.5285 9.47145C12.6535 9.59647 12.8231 9.66671 12.9999 9.66671Z" fill="#1D2327"/>
</svg>
