<svg width="96" height="96" viewBox="0 0 96 96" fill="none" xmlns="http://www.w3.org/2000/svg">
<rect width="96" height="96" rx="8" fill="#533582"/>
<path d="M23.522 51.2222C24.461 51.2222 25.3565 51.5754 26.0445 52.2175C26.7654 52.8894 27.1806 53.8026 27.2144 54.7915C27.249 55.7763 26.8966 56.7161 26.2239 57.4379C25.5504 58.1596 24.6364 58.5756 23.6475 58.6094C23.6049 58.611 23.5606 58.6118 23.518 58.6118C22.5814 58.6118 21.6875 58.2586 21.002 57.6189C20.2802 56.9454 19.8642 56.0322 19.8304 55.0433C19.7958 54.0577 20.1483 53.1171 20.8193 52.3978C21.4944 51.6752 22.4084 51.2592 23.3933 51.2254C23.4359 51.223 23.4794 51.2222 23.522 51.2222ZM23.522 46.3945C23.4238 46.3945 23.3257 46.3961 23.2275 46.3994C21.0486 46.4742 18.8979 47.3818 17.2911 49.1013C15.6859 50.8223 14.9295 53.031 15.0052 55.2107C15.08 57.3896 15.986 59.5411 17.7071 61.1471C19.3493 62.6791 21.4364 63.4387 23.5172 63.4387C23.6161 63.4387 23.7159 63.4371 23.8149 63.4339C25.9946 63.359 28.1461 62.4522 29.7521 60.732C31.3573 59.0109 32.1137 56.8022 32.038 54.6241C31.9632 52.4444 31.0564 50.2929 29.3362 48.6877C27.6939 47.1525 25.6052 46.3945 23.522 46.3945Z" fill="#CFB9F6"/>
<path d="M72.4782 37.3863C73.4163 37.3863 74.3119 37.7395 74.9982 38.38C75.72 39.0534 76.1359 39.9667 76.1697 40.9556C76.2043 41.9404 75.8527 42.8802 75.1792 43.6011C74.5058 44.3229 73.5909 44.7397 72.6069 44.7735C72.5643 44.7751 72.5208 44.7759 72.4782 44.7759C71.5392 44.7759 70.6436 44.4226 69.9557 43.7806C69.2348 43.1087 68.8196 42.1955 68.7858 41.2066C68.7512 40.2217 69.1028 39.282 69.7763 38.561C70.4497 37.8393 71.3646 37.4225 72.3494 37.3887C72.3921 37.3863 72.4355 37.3863 72.4782 37.3863ZM72.4782 32.5586C72.38 32.5586 72.2818 32.5602 72.1845 32.5634C70.0048 32.6399 67.8532 33.5459 66.2472 35.2669C64.642 36.9864 63.8849 39.1951 63.9613 41.3748C64.0361 43.5545 64.9429 45.706 66.6632 47.3112C68.307 48.8448 70.395 49.6036 72.4782 49.6036C72.5763 49.6036 72.6745 49.6019 72.7726 49.5987C74.9515 49.5231 77.1023 48.6163 78.7091 46.8952C80.3143 45.1758 81.0714 42.9671 80.995 40.7874C80.9202 38.6077 80.0142 36.457 78.2931 34.8509C76.6493 33.3165 74.5605 32.5578 72.4782 32.5586Z" fill="white"/>
<path d="M46.6626 19.4697L35.4004 22.0227C34.8959 22.137 34.7253 22.7686 35.1035 23.1219L39.6649 27.3775L23.1421 45.079C25.6557 44.9816 28.2031 45.8482 30.1873 47.6996C32.1401 49.5229 33.1789 51.9584 33.2818 54.4342L49.7491 36.789L54.3088 41.0438C54.687 41.3963 55.305 41.1822 55.3846 40.6713L57.1532 29.2586L58.9676 17.5789C59.0376 17.1299 58.632 16.7517 58.1887 16.8523L46.6626 19.4697Z" fill="#CFB9F6"/>
<path d="M72.8571 50.9178C70.3451 51.0151 67.7961 50.1485 65.8127 48.2963C63.8591 46.4731 62.8212 44.0359 62.715 41.5625L46.2493 59.2077L41.6896 54.9521C41.3114 54.5997 40.6935 54.8137 40.6138 55.3238L38.8453 66.7373L37.0309 78.4171C36.9609 78.8661 37.3664 79.2442 37.8097 79.1436L49.3358 76.5278L60.598 73.9748C61.1025 73.8605 61.2731 73.2289 60.8949 72.8765L56.3352 68.6209L72.8571 50.9178Z" fill="white"/>
</svg>
