<svg width="16" height="16" viewBox="0 0 16 16" fill="none" xmlns="http://www.w3.org/2000/svg">
<path d="M10.5 1.33203C10.8978 1.33203 11.2794 1.49007 11.5607 1.77137C11.842 2.05268 12 2.43421 12 2.83203V13.1654C12 13.5632 11.842 13.9447 11.5607 14.226C11.2794 14.5073 10.8978 14.6654 10.5 14.6654H5.5C5.10218 14.6654 4.72064 14.5073 4.43934 14.226C4.15804 13.9447 4 13.5632 4 13.1654V2.83203C4 2.43421 4.15804 2.05268 4.43934 1.77137C4.72064 1.49007 5.10218 1.33203 5.5 1.33203H10.5ZM10.5 2.33203H5.5C5.36739 2.33203 5.24021 2.38471 5.14645 2.47848C5.05268 2.57225 5 2.69942 5 2.83203V13.1654C5 13.4414 5.224 13.6654 5.5 13.6654H10.5C10.6326 13.6654 10.7598 13.6127 10.8536 13.5189C10.9473 13.4252 11 13.298 11 13.1654V2.83203C11 2.69942 10.9473 2.57225 10.8536 2.47848C10.7598 2.38471 10.6326 2.33203 10.5 2.33203ZM8.83267 11.6654C8.96527 11.6652 9.09252 11.7177 9.18642 11.8113C9.28031 11.905 9.33316 12.0321 9.33333 12.1647C9.33351 12.2973 9.281 12.4246 9.18736 12.5184C9.09372 12.6123 8.96661 12.6652 8.834 12.6654L7.16733 12.668C7.03473 12.6682 6.90748 12.6157 6.81358 12.5221C6.71969 12.4284 6.66684 12.3013 6.66667 12.1687C6.66649 12.0361 6.719 11.9088 6.81264 11.8149C6.90629 11.7211 7.03339 11.6682 7.166 11.668L8.83267 11.6654Z" fill="#1D2327"/>
</svg>
