<svg width="16" height="16" viewBox="0 0 16 16" fill="none" xmlns="http://www.w3.org/2000/svg">
<path d="M8.66659 8.3327C9.00297 8.33259 9.32696 8.45964 9.57362 8.68836C9.82027 8.91709 9.97136 9.23059 9.99659 9.56603L9.99992 9.66603V9.9987H8.99992V9.66603C8.99981 9.58805 8.97243 9.51256 8.92251 9.45265C8.87258 9.39275 8.80327 9.3522 8.72659 9.33803L8.66659 9.3327L2.66659 9.33203L2.59992 9.3387C2.53593 9.35202 2.47714 9.3835 2.43059 9.42937C2.3847 9.47565 2.35321 9.53423 2.33992 9.59803L2.33325 9.66537V10.9987C2.33325 11.6714 2.63325 12.1467 3.27792 12.4934C3.82859 12.79 4.61325 12.9694 5.45525 12.9954L5.66659 12.9987L5.87792 12.9954C6.37005 12.9833 6.85884 12.9108 7.33325 12.7794V13.8127C6.78658 13.9379 6.22741 14.0003 5.66659 13.9987C3.85192 13.9987 1.44325 13.3614 1.33659 11.152L1.33325 10.9987V9.66537C1.33325 8.9627 1.87725 8.3867 2.56659 8.33536L2.66659 8.33203L8.66659 8.3327ZM14.3333 9.9987C14.4473 9.9987 14.5586 10.01 14.6666 10.032V9.66603L14.6626 9.56603C14.6371 9.23089 14.4859 8.91773 14.2395 8.68919C13.993 8.46065 13.6694 8.33357 13.3333 8.33336H10.1466L10.2359 8.44003C10.4366 8.69536 10.5766 8.99936 10.6326 9.33336H13.3333L13.3933 9.3387C13.5479 9.3667 13.6666 9.50336 13.6666 9.6667V9.9987H14.3333ZM5.66659 1.33203C6.06055 1.33203 6.45066 1.40963 6.81464 1.56039C7.17861 1.71116 7.50933 1.93214 7.78791 2.21071C8.06648 2.48929 8.28746 2.82 8.43822 3.18398C8.58899 3.54796 8.66659 3.93807 8.66659 4.33203C8.66659 4.726 8.58899 5.1161 8.43822 5.48008C8.28746 5.84406 8.06648 6.17478 7.78791 6.45335C7.50933 6.73193 7.17861 6.95291 6.81464 7.10367C6.45066 7.25443 6.06055 7.33203 5.66659 7.33203C4.87094 7.33203 4.10787 7.01596 3.54526 6.45335C2.98266 5.89074 2.66659 5.12768 2.66659 4.33203C2.66659 3.53638 2.98266 2.77332 3.54526 2.21071C4.10787 1.6481 4.87094 1.33203 5.66659 1.33203ZM5.66659 2.33203C4.56392 2.33203 3.66659 3.22936 3.66659 4.33203C3.66659 5.4347 4.56392 6.33203 5.66659 6.33203C6.76925 6.33203 7.66659 5.4347 7.66659 4.33203C7.66659 3.22936 6.76925 2.33203 5.66659 2.33203ZM11.6666 2.66536C12.2854 2.66536 12.8789 2.9112 13.3165 3.34878C13.7541 3.78637 13.9999 4.37986 13.9999 4.9987C13.9999 5.61754 13.7541 6.21103 13.3165 6.64861C12.8789 7.0862 12.2854 7.33203 11.6666 7.33203C11.0477 7.33203 10.4543 7.0862 10.0167 6.64861C9.57909 6.21103 9.33325 5.61754 9.33325 4.9987C9.33325 4.37986 9.57909 3.78637 10.0167 3.34878C10.4543 2.9112 11.0477 2.66536 11.6666 2.66536ZM11.6666 3.66536C10.9313 3.66536 10.3333 4.26336 10.3333 4.9987C10.3333 5.73403 10.9313 6.33203 11.6666 6.33203C12.4019 6.33203 12.9999 5.73403 12.9999 4.9987C12.9999 4.26336 12.4019 3.66536 11.6666 3.66536ZM7.99992 11.6654C7.99992 11.4001 8.10528 11.1458 8.29281 10.9583C8.48035 10.7707 8.7347 10.6654 8.99992 10.6654H14.3333C14.5985 10.6654 14.8528 10.7707 15.0404 10.9583C15.2279 11.1458 15.3333 11.4001 15.3333 11.6654V14.332C15.3333 14.5972 15.2279 14.8516 15.0404 15.0391C14.8528 15.2267 14.5985 15.332 14.3333 15.332H8.99992C8.7347 15.332 8.48035 15.2267 8.29281 15.0391C8.10528 14.8516 7.99992 14.5972 7.99992 14.332V11.6654ZM14.6666 11.9987C14.4898 11.9987 14.3202 11.9285 14.1952 11.8034C14.0702 11.6784 13.9999 11.5088 13.9999 11.332H13.3333C13.3333 11.6857 13.4737 12.0248 13.7238 12.2748C13.9738 12.5249 14.313 12.6654 14.6666 12.6654V11.9987ZM14.6666 13.332C14.313 13.332 13.9738 13.4725 13.7238 13.7226C13.4737 13.9726 13.3333 14.3117 13.3333 14.6654H13.9999C13.9999 14.4886 14.0702 14.319 14.1952 14.194C14.3202 14.0689 14.4898 13.9987 14.6666 13.9987V13.332ZM9.33325 11.332C9.33325 11.5088 9.26301 11.6784 9.13799 11.8034C9.01297 11.9285 8.8434 11.9987 8.66659 11.9987V12.6654C9.02021 12.6654 9.35935 12.5249 9.60939 12.2748C9.85944 12.0248 9.99992 11.6857 9.99992 11.332H9.33325ZM9.99992 14.6654C9.99992 14.3117 9.85944 13.9726 9.60939 13.7226C9.35935 13.4725 9.02021 13.332 8.66659 13.332V13.9987C8.8434 13.9987 9.01297 14.0689 9.13799 14.194C9.26301 14.319 9.33325 14.4886 9.33325 14.6654H9.99992ZM12.8333 12.9987C12.8333 12.6893 12.7103 12.3925 12.4915 12.1737C12.2728 11.9549 11.976 11.832 11.6666 11.832C11.3572 11.832 11.0604 11.9549 10.8416 12.1737C10.6228 12.3925 10.4999 12.6893 10.4999 12.9987C10.4999 13.3081 10.6228 13.6049 10.8416 13.8237C11.0604 14.0424 11.3572 14.1654 11.6666 14.1654C11.976 14.1654 12.2728 14.0424 12.4915 13.8237C12.7103 13.6049 12.8333 13.3081 12.8333 12.9987Z" fill="#1D2327"/>
</svg>
