<svg width="15" height="12" viewBox="0 0 15 12" fill="none" xmlns="http://www.w3.org/2000/svg">
<path d="M14.5 1.5H6.87197C6.56309 0.626106 5.72966 0 4.75 0C3.77034 0 2.93691 0.626106 2.62803 1.5H0.5V3H2.62803C2.93691 3.87389 3.77034 4.5 4.75 4.5C5.72966 4.5 6.56309 3.87389 6.87197 3H14.5V1.5Z" fill="#3858E9"/>
<path d="M14.5 9H12.372C12.0631 8.12611 11.2297 7.5 10.25 7.5C9.27034 7.5 8.43691 8.12611 8.12803 9H0.5V10.5H8.12803C8.43691 11.3739 9.27034 12 10.25 12C11.2297 12 12.0631 11.3739 12.372 10.5H14.5V9Z" fill="#3858E9"/>
</svg>
