<svg width="20" height="14" viewBox="0 0 20 14" fill="none" xmlns="http://www.w3.org/2000/svg">
<path d="M20 5.32531C20 6.11328 19.3619 6.75281 18.5755 6.75281C18.5613 6.75281 18.5498 6.75281 18.5356 6.75L17.1428 12.0719H2.85719L1.36469 7.15828C0.606875 7.12703 0 6.50172 0 5.73359C0 4.94562 0.638125 4.30609 1.42453 4.30609C2.21078 4.30609 2.84906 4.94562 2.84906 5.73359C2.84856 5.89279 2.82261 6.05088 2.77219 6.20188L6.22234 8.22047L9.13969 2.85C8.9352 2.72183 8.7667 2.54372 8.65006 2.33244C8.53342 2.12117 8.47248 1.88368 8.47297 1.64234C8.47297 0.854375 9.11109 0.214844 9.8975 0.214844C10.6839 0.214844 11.322 0.854375 11.322 1.64234C11.3225 1.88368 11.2616 2.12117 11.1449 2.33244C11.0283 2.54372 10.8598 2.72183 10.6553 2.85L13.5727 8.22047L17.3305 6.02203C17.2123 5.80886 17.1505 5.56905 17.1509 5.32531C17.1509 4.53438 17.7891 3.89781 18.5755 3.89781C19.3619 3.89781 20 4.53453 20 5.32531ZM17.1428 12.6433H2.85719V13.7861H17.143L17.1428 12.6433Z" fill="#3858E9"/>
</svg>
