<svg width="128" height="128" viewBox="0 0 128 128" fill="none" xmlns="http://www.w3.org/2000/svg">
<rect width="128" height="128" rx="8" fill="#533582"/>
<path d="M31.3627 68.3002C32.6147 68.3002 33.8087 68.7712 34.726 69.6273C35.6872 70.5231 36.2408 71.7407 36.2858 73.0592C36.332 74.3724 35.8621 75.6254 34.9652 76.5877C34.0672 77.5501 32.8485 78.1047 31.53 78.1498C31.4732 78.1519 31.4142 78.153 31.3573 78.153C30.1085 78.153 28.9166 77.682 28.0026 76.8291C27.0403 75.9312 26.4856 74.7135 26.4406 73.395C26.3944 72.0808 26.8643 70.8267 27.7591 69.8676C28.6592 68.9042 29.8779 68.3495 31.191 68.3045C31.2479 68.3013 31.3058 68.3002 31.3627 68.3002ZM31.3627 61.8633C31.2318 61.8633 31.1009 61.8654 30.97 61.8697C28.0648 61.9695 25.1972 63.1796 23.0548 65.4722C20.9145 67.767 19.906 70.7119 20.0069 73.6182C20.1066 76.5234 21.3146 79.3921 23.6094 81.5334C25.799 83.5761 28.5819 84.5888 31.3562 84.5888C31.4882 84.5888 31.6212 84.5867 31.7532 84.5824C34.6594 84.4826 37.5282 83.2735 39.6695 80.9799C41.8098 78.6851 42.8182 75.7402 42.7174 72.8361C42.6176 69.9298 41.4086 67.0611 39.1149 64.9208C36.9252 62.8739 34.1402 61.8633 31.3627 61.8633Z" fill="#CFB9F6"/>
<path d="M96.6362 49.8471C97.8871 49.8471 99.0812 50.318 99.9963 51.172C100.959 52.07 101.513 53.2876 101.558 54.6061C101.604 55.9192 101.136 57.1723 100.238 58.1335C99.3397 59.0959 98.12 59.6516 96.8079 59.6966C96.751 59.6988 96.6931 59.6999 96.6362 59.6999C95.3843 59.6999 94.1902 59.2289 93.273 58.3728C92.3117 57.477 91.7581 56.2593 91.7131 54.9408C91.6669 53.6277 92.1358 52.3746 93.0337 51.4134C93.9317 50.4511 95.1515 49.8954 96.4646 49.8503C96.5215 49.8471 96.5794 49.8471 96.6362 49.8471ZM96.6362 43.4102C96.5054 43.4102 96.3745 43.4123 96.2447 43.4166C93.3384 43.5185 90.4697 44.7265 88.3283 47.0213C86.1881 49.3139 85.1785 52.2588 85.2804 55.165C85.3802 58.0713 86.5893 60.94 88.883 63.0803C91.0747 65.1251 93.8587 66.1368 96.6362 66.1368C96.7671 66.1368 96.898 66.1346 97.0289 66.1303C99.9341 66.0295 102.802 64.8204 104.944 62.5257C107.084 60.233 108.094 57.2882 107.992 54.3819C107.892 51.4756 106.684 48.608 104.39 46.4666C102.198 44.4208 99.4127 43.4091 96.6362 43.4102Z" fill="white"/>
<path d="M62.2161 25.9609L47.1999 29.365C46.5272 29.5173 46.2998 30.3595 46.804 30.8304L52.8858 36.5046L30.8555 60.1066C34.207 59.9768 37.6035 61.1322 40.2491 63.6008C42.8528 66.0318 44.2378 69.2792 44.3751 72.5803L66.3315 49.0534L72.4111 54.7264C72.9154 55.1963 73.7393 54.9109 73.8455 54.2297L76.2036 39.0128L78.6228 23.4398C78.7161 22.8411 78.1754 22.3369 77.5843 22.471L62.2161 25.9609Z" fill="#CFB9F6"/>
<path d="M97.1422 67.8916C93.7929 68.0215 90.3942 66.866 87.7497 64.3964C85.1449 61.9654 83.7609 58.7158 83.6193 55.418L61.6651 78.9449L55.5855 73.2708C55.0812 72.8009 54.2573 73.0862 54.1511 73.7664L51.793 88.9844L49.3738 104.557C49.2805 105.156 49.8212 105.66 50.4123 105.526L65.7805 102.038L80.7967 98.6344C81.4694 98.482 81.6968 97.6399 81.1926 97.17L75.1129 91.4958L97.1422 67.8916Z" fill="white"/>
</svg>
