<svg width="16" height="20" viewBox="0 0 16 20" fill="none" xmlns="http://www.w3.org/2000/svg">
<path d="M11.538 16.998L11.248 18.257C11.1398 18.7235 10.8855 19.1434 10.5222 19.4554C10.1589 19.7675 9.70552 19.9554 9.228 19.992L9.055 19.999H6.944C6.46485 19.999 5.99821 19.846 5.61203 19.5624C5.22586 19.2787 4.94032 18.8792 4.797 18.422L4.751 18.255L4.461 16.998H11.538ZM8 0C9.92282 0 11.7669 0.763837 13.1265 2.12348C14.4862 3.48311 15.25 5.32718 15.25 7.25C15.25 9.386 14.314 11.343 12.485 13.09C12.4496 13.1238 12.4249 13.1673 12.414 13.215L11.886 15.498H4.114L3.588 13.215C3.5769 13.1676 3.55223 13.1245 3.517 13.091C1.687 11.343 0.75 9.386 0.75 7.249C0.750265 5.32635 1.51422 3.48254 2.87383 2.12312C4.23344 0.7637 6.07735 -1.82891e-08 8 0Z" fill="#7B90FF"/>
</svg>
