<svg width="30" height="22" viewBox="0 0 30 22" fill="none" xmlns="http://www.w3.org/2000/svg">
<path d="M17.3101 1.26772C14.3251 -0.900768 12.0418 1.37923 12.0418 1.37923C12.0418 1.37923 0.62677 17.615 0.333984 19.172C0.333984 21.8386 2.91013 21.172 2.91013 21.172C2.91013 21.172 12.3929 18.2823 12.744 18.1714C13.0951 18.0604 14.7315 17.7695 14.7315 17.7695L22.9004 15.3071C22.9004 15.3071 24.6012 14.5629 27.5861 16.4701C24.5751 11.8695 18.367 2.43863 17.3101 1.26772ZM14.0506 13.6344C13.9212 13.6756 10.4363 14.738 10.4363 14.738C10.4363 14.738 9.48931 14.9804 9.48931 14.0023C9.59743 13.4301 13.7924 7.46347 13.7924 7.46347C13.7924 7.46347 14.6313 6.62529 15.7283 7.42226C16.1165 7.85256 18.4011 11.3186 19.5048 13.0095C18.4071 12.3083 17.7827 12.5823 17.7827 12.5823L14.7807 13.4865C14.7807 13.4865 14.1793 13.5938 14.0506 13.6344Z" fill="#6D61DF"/>
<path d="M27.6455 16.8593C28.5567 18.2484 29.172 19.1975 29.2692 19.3441C29.2705 19.3464 29.2719 19.3487 29.2735 19.3508C29.2756 19.3548 29.2781 19.3586 29.2807 19.3623C29.2806 19.3637 29.2806 19.3651 29.2807 19.3666C29.285 19.4459 29.3415 20.635 28.5549 21.3059C28.4822 21.369 28.4042 21.4256 28.3216 21.475C28.1199 21.5963 27.8514 21.6502 27.5483 21.6569C26.7848 21.6775 25.8019 21.4053 25.1253 21.1799C24.8027 21.072 24.5506 20.975 24.4231 20.9247L24.3338 20.8884L15.3327 18.3144L15.1505 18.2629L15.0733 18.2405L14.9762 18.2126C14.9742 18.2132 14.9721 18.2132 14.9701 18.2126L14.9184 18.1981L14.7891 18.1605L22.9579 15.6987C22.9579 15.6987 24.6587 14.952 27.6455 16.8593Z" fill="#1F1B39"/>
</svg>
