<?xml version="1.0" encoding="UTF-8"?>
<svg xmlns="http://www.w3.org/2000/svg" xmlns:xlink="http://www.w3.org/1999/xlink" width="15px" height="15px" viewBox="0 0 15 15" version="1.1">
<g id="surface1">
<path style=" stroke:none;fill-rule:nonzero;fill:rgb(32.549021%,20.784314%,50.980395%);fill-opacity:1;" d="M 1.25 0 L 13.75 0 C 14.441406 0 15 0.558594 15 1.25 L 15 13.75 C 15 14.441406 14.441406 15 13.75 15 L 1.25 15 C 0.558594 15 0 14.441406 0 13.75 L 0 1.25 C 0 0.558594 0.558594 0 1.25 0 Z M 1.25 0 "/>
<path style=" stroke:none;fill-rule:nonzero;fill:rgb(81.176472%,72.549021%,96.470588%);fill-opacity:1;" d="M 3.675781 8.003906 C 3.820312 8.003906 3.960938 8.058594 4.070312 8.160156 C 4.183594 8.265625 4.246094 8.40625 4.253906 8.5625 C 4.257812 8.714844 4.203125 8.863281 4.097656 8.976562 C 3.992188 9.085938 3.847656 9.152344 3.695312 9.15625 C 3.6875 9.15625 3.679688 9.15625 3.675781 9.15625 C 3.527344 9.15625 3.390625 9.101562 3.28125 9.003906 C 3.167969 8.898438 3.105469 8.753906 3.097656 8.601562 C 3.09375 8.445312 3.148438 8.300781 3.253906 8.1875 C 3.359375 8.074219 3.5 8.007812 3.65625 8.003906 C 3.660156 8.003906 3.667969 8.003906 3.675781 8.003906 Z M 3.675781 7.25 C 3.660156 7.25 3.644531 7.25 3.628906 7.25 C 3.289062 7.261719 2.953125 7.402344 2.703125 7.671875 C 2.449219 7.941406 2.332031 8.285156 2.34375 8.625 C 2.355469 8.96875 2.496094 9.304688 2.765625 9.554688 C 3.023438 9.792969 3.347656 9.914062 3.675781 9.914062 C 3.691406 9.914062 3.707031 9.910156 3.722656 9.910156 C 4.0625 9.898438 4.398438 9.757812 4.648438 9.488281 C 4.898438 9.21875 5.019531 8.875 5.007812 8.535156 C 4.996094 8.195312 4.851562 7.859375 4.582031 7.609375 C 4.328125 7.367188 4 7.25 3.675781 7.25 Z M 3.675781 7.25 "/>
<path style=" stroke:none;fill-rule:nonzero;fill:rgb(100%,100%,100%);fill-opacity:1;" d="M 11.324219 5.839844 C 11.472656 5.839844 11.609375 5.898438 11.71875 5.996094 C 11.832031 6.101562 11.894531 6.246094 11.902344 6.398438 C 11.90625 6.554688 11.851562 6.699219 11.746094 6.8125 C 11.640625 6.925781 11.5 6.992188 11.34375 6.996094 C 11.339844 6.996094 11.332031 6.996094 11.324219 6.996094 C 11.179688 6.996094 11.039062 6.941406 10.929688 6.839844 C 10.816406 6.734375 10.753906 6.59375 10.746094 6.4375 C 10.742188 6.285156 10.796875 6.136719 10.902344 6.023438 C 11.007812 5.914062 11.152344 5.847656 11.304688 5.84375 C 11.3125 5.839844 11.316406 5.839844 11.324219 5.839844 Z M 11.324219 5.085938 C 11.308594 5.085938 11.292969 5.085938 11.277344 5.089844 C 10.9375 5.101562 10.601562 5.242188 10.351562 5.511719 C 10.101562 5.777344 9.980469 6.125 9.992188 6.464844 C 10.003906 6.804688 10.148438 7.140625 10.417969 7.390625 C 10.671875 7.632812 11 7.75 11.324219 7.75 C 11.339844 7.75 11.355469 7.75 11.371094 7.75 C 11.710938 7.738281 12.046875 7.597656 12.296875 7.328125 C 12.550781 7.058594 12.667969 6.714844 12.65625 6.371094 C 12.644531 6.03125 12.503906 5.695312 12.234375 5.445312 C 11.976562 5.207031 11.648438 5.085938 11.324219 5.085938 Z M 11.324219 5.085938 "/>
<path style=" stroke:none;fill-rule:nonzero;fill:rgb(81.176472%,72.549021%,96.470588%);fill-opacity:1;" d="M 7.292969 3.042969 L 5.53125 3.441406 C 5.453125 3.457031 5.425781 3.558594 5.484375 3.613281 L 6.199219 4.277344 L 3.617188 7.042969 C 4.007812 7.027344 4.40625 7.164062 4.714844 7.453125 C 5.023438 7.738281 5.183594 8.117188 5.199219 8.503906 L 7.773438 5.75 L 8.484375 6.414062 C 8.542969 6.46875 8.640625 6.433594 8.652344 6.355469 L 8.929688 4.570312 L 9.214844 2.746094 C 9.226562 2.675781 9.160156 2.617188 9.09375 2.632812 Z M 7.292969 3.042969 "/>
<path style=" stroke:none;fill-rule:nonzero;fill:rgb(100%,100%,100%);fill-opacity:1;" d="M 11.382812 7.957031 C 10.992188 7.972656 10.59375 7.835938 10.285156 7.546875 C 9.976562 7.261719 9.816406 6.878906 9.800781 6.496094 L 7.226562 9.25 L 6.515625 8.585938 C 6.453125 8.53125 6.359375 8.566406 6.347656 8.644531 L 6.070312 10.425781 L 5.785156 12.253906 C 5.773438 12.324219 5.839844 12.382812 5.90625 12.367188 L 7.707031 11.957031 L 9.46875 11.558594 C 9.546875 11.539062 9.574219 11.441406 9.515625 11.386719 L 8.800781 10.722656 Z M 11.382812 7.957031 "/>
</g>
</svg>
