<svg width="160" height="160" viewBox="0 0 160 160" fill="none" xmlns="http://www.w3.org/2000/svg">
<rect width="160" height="160" rx="8" fill="#533582"/>
<path d="M39.2033 85.3743C40.7683 85.3743 42.2609 85.963 43.4075 87.0331C44.609 88.1529 45.301 89.6749 45.3573 91.3231C45.415 92.9645 44.8276 94.5308 43.7065 95.7337C42.5841 96.9366 41.0607 97.6299 39.4125 97.6862C39.3415 97.6889 39.2677 97.6902 39.1966 97.6902C37.6357 97.6902 36.1458 97.1015 35.0033 96.0354C33.8004 94.913 33.107 93.3909 33.0507 91.7428C32.9931 90.1 33.5804 88.5324 34.6988 87.3335C35.824 86.1293 37.3474 85.436 38.9888 85.3796C39.0598 85.3756 39.1323 85.3743 39.2033 85.3743ZM39.2033 77.3281C39.0397 77.3281 38.8761 77.3308 38.7125 77.3362C35.081 77.4609 31.4965 78.9736 28.8184 81.8393C26.1431 84.7078 24.8825 88.3889 25.0086 92.0217C25.1333 95.6532 26.6433 99.2391 29.5118 101.916C32.2488 104.469 35.7274 105.735 39.1953 105.735C39.3602 105.735 39.5265 105.732 39.6915 105.727C43.3243 105.602 46.9102 104.091 49.5869 101.224C52.2622 98.3554 53.5228 94.6743 53.3967 91.0441C53.272 87.4113 51.7607 83.8254 48.8936 81.15C46.1566 78.5914 42.6753 77.3281 39.2033 77.3281Z" fill="#CFB9F6"/>
<path d="M120.797 62.3118C122.361 62.3118 123.853 62.9005 124.997 63.9679C126.2 65.0904 126.894 66.6124 126.95 68.2606C127.008 69.902 126.422 71.4683 125.299 72.6699C124.177 73.8728 122.652 74.5674 121.012 74.6237C120.941 74.6264 120.868 74.6277 120.797 74.6277C119.232 74.6277 117.74 74.039 116.593 72.9689C115.392 71.8491 114.7 70.3271 114.643 68.679C114.586 67.0375 115.172 65.4712 116.294 64.2697C117.417 63.0668 118.941 62.3721 120.583 62.3158C120.654 62.3118 120.726 62.3118 120.797 62.3118ZM120.797 54.2656C120.634 54.2656 120.47 54.2683 120.308 54.2737C116.675 54.4011 113.089 55.9111 110.412 58.7795C107.737 61.6453 106.475 65.3264 106.603 68.9592C106.727 72.5921 108.239 76.178 111.106 78.8533C113.845 81.4093 117.325 82.6739 120.797 82.6739C120.961 82.6739 121.124 82.6712 121.288 82.6658C124.92 82.5398 128.504 81.0285 131.182 78.16C133.857 75.2942 135.119 71.6131 134.992 67.9803C134.867 64.3475 133.357 60.7629 130.489 58.0862C127.749 55.5289 124.268 54.2643 120.797 54.2656Z" fill="white"/>
<path d="M77.7711 32.4521L59.0008 36.7072C58.16 36.8976 57.8757 37.9503 58.506 38.539L66.1083 45.6317L38.5703 75.1343C42.7597 74.972 47.0054 76.4163 50.3123 79.502C53.567 82.5407 55.2983 86.6 55.4699 90.7263L82.9153 61.3177L90.5149 68.409C91.1452 68.9964 92.1751 68.6397 92.3079 67.7881L95.2554 48.767L98.2794 29.3007C98.3961 28.5524 97.7202 27.9221 96.9813 28.0898L77.7711 32.4521Z" fill="#CFB9F6"/>
<path d="M121.429 84.8655C117.242 85.0278 112.994 83.5835 109.688 80.4965C106.432 77.4577 104.702 73.3957 104.525 69.2734L77.0824 98.6821L69.4828 91.5894C68.8525 91.0021 67.8226 91.3588 67.6898 92.209L64.7423 111.231L61.7183 130.698C61.6016 131.446 62.2775 132.076 63.0164 131.909L82.2266 127.549L100.997 123.294C101.838 123.104 102.122 122.051 101.492 121.463L93.8921 114.371L121.429 84.8655Z" fill="white"/>
</svg>
