<svg width="14" height="14" viewBox="0 0 14 14" fill="none" xmlns="http://www.w3.org/2000/svg">
<path fill-rule="evenodd" clip-rule="evenodd" d="M5.57476 1.02837C5.64173 0.626542 5.98939 0.332031 6.39676 0.332031H7.48488C7.89225 0.332031 8.2399 0.626542 8.30688 1.02837L8.51049 2.25005C9.16667 2.46683 9.76269 2.81582 10.267 3.26548L11.4279 2.83059C11.8093 2.68768 12.2382 2.8415 12.4419 3.19429L12.986 4.13663C13.1896 4.48942 13.1084 4.93776 12.7939 5.19667L11.8378 5.98381C11.9053 6.31153 11.9408 6.65097 11.9408 6.9987C11.9408 7.34629 11.9053 7.6856 11.8378 8.01321L12.7947 8.80093C13.1092 9.05984 13.1904 9.50818 12.9867 9.86097L12.4427 10.8033C12.239 11.1561 11.8101 11.3099 11.4286 11.167L10.2671 10.7319C9.76275 11.1815 9.1667 11.5306 8.51049 11.7473L8.30688 12.969C8.2399 13.3709 7.89225 13.6654 7.48488 13.6654H6.39676C5.98939 13.6654 5.64173 13.3709 5.57476 12.969L5.37115 11.7473C4.71494 11.5306 4.11888 11.1815 3.61454 10.7318L2.453 11.167C2.07152 11.3099 1.64264 11.1561 1.43896 10.8033L0.894895 9.86096C0.691212 9.50817 0.772437 9.05983 1.08694 8.80092L2.0438 8.0132C1.97629 7.6856 1.94082 7.34629 1.94082 6.9987C1.94082 6.65097 1.97632 6.31154 2.04388 5.98382L1.08772 5.19668C0.773218 4.93777 0.691994 4.48943 0.895677 4.13664L1.43974 3.1943C1.64342 2.84151 2.0723 2.68768 2.45378 2.8306L3.61461 3.26549C4.11894 2.81583 4.71497 2.46683 5.37115 2.25005L5.57476 1.02837ZM9.44082 6.9987C9.44082 8.37941 8.32153 9.4987 6.94082 9.4987C5.56011 9.4987 4.44082 8.37941 4.44082 6.9987C4.44082 5.61799 5.56011 4.4987 6.94082 4.4987C8.32153 4.4987 9.44082 5.61799 9.44082 6.9987Z" fill="#3858E9"/>
</svg>
