<svg width="16" height="16" viewBox="0 0 16 16" fill="none" xmlns="http://www.w3.org/2000/svg">
<path d="M12.1926 5.25791C12.2962 5.3919 12.3449 5.56031 12.3289 5.72892C12.3128 5.89754 12.2332 6.05372 12.1061 6.16574C11.9791 6.27776 11.8142 6.33723 11.6449 6.33206C11.4756 6.32689 11.3146 6.25747 11.1946 6.13791L7.66594 2.60924L4.13727 6.13791L4.07461 6.19324C3.94061 6.29685 3.7722 6.34557 3.60359 6.32951C3.43497 6.31344 3.27879 6.2338 3.16677 6.10676C3.05475 5.97972 2.99528 5.8148 3.00045 5.6455C3.00562 5.4762 3.07504 5.31521 3.19461 5.19524L7.19461 1.19524L7.25727 1.13991C7.38554 1.04041 7.54571 0.991127 7.70773 1.00131C7.86974 1.0115 8.02248 1.08046 8.13727 1.19524L12.1373 5.19524L12.1926 5.25791ZM3.13927 10.0752C3.03566 9.94125 2.98694 9.77284 3.00301 9.60422C3.01907 9.43561 3.09871 9.27943 3.22575 9.16741C3.3528 9.05538 3.51772 8.99592 3.68702 9.00109C3.85632 9.00626 4.0173 9.07568 4.13727 9.19524L7.66594 12.7239L11.1946 9.19524L11.2573 9.13991C11.3913 9.0363 11.5597 8.98758 11.7283 9.00364C11.8969 9.0197 12.0531 9.09935 12.1651 9.22639C12.2771 9.35343 12.3366 9.51835 12.3314 9.68765C12.3263 9.85695 12.2568 10.0179 12.1373 10.1379L8.13727 14.1379L8.07461 14.1932C7.94634 14.2927 7.78617 14.342 7.62415 14.3318C7.46213 14.3216 7.3094 14.2527 7.19461 14.1379L3.19461 10.1379L3.13927 10.0752Z" fill="#787C82"/>
</svg>
