<svg width="10" height="14" viewBox="0 0 10 14" fill="none" xmlns="http://www.w3.org/2000/svg">
<path d="M5.47133 0.528687C5.34631 0.403706 5.17678 0.333496 5 0.333496C4.82322 0.333496 4.65369 0.403706 4.52867 0.528687L1.19533 3.86202C1.07389 3.98776 1.0067 4.15616 1.00822 4.33095C1.00974 4.50575 1.07985 4.67296 1.20345 4.79657C1.32706 4.92017 1.49427 4.99028 1.66907 4.9918C1.84386 4.99332 2.01227 4.92613 2.138 4.80469L4.33333 2.60935V11C4.33333 11.1768 4.40357 11.3464 4.5286 11.4714C4.65362 11.5964 4.82319 11.6667 5 11.6667C5.17681 11.6667 5.34638 11.5964 5.4714 11.4714C5.59643 11.3464 5.66667 11.1768 5.66667 11V2.60935L7.862 4.80469C7.9235 4.86836 7.99706 4.91915 8.0784 4.95409C8.15973 4.98903 8.24721 5.00742 8.33573 5.00819C8.42425 5.00896 8.51204 4.99209 8.59397 4.95857C8.6759 4.92505 8.75033 4.87555 8.81293 4.81295C8.87553 4.75035 8.92503 4.67592 8.95855 4.59399C8.99207 4.51206 9.00894 4.42427 9.00817 4.33575C9.0074 4.24723 8.98901 4.15975 8.95407 4.07842C8.91913 3.99708 8.86834 3.92352 8.80467 3.86202L5.47133 0.528687ZM0.5 12.6667C0.367392 12.6667 0.240215 12.7194 0.146447 12.8131C0.0526784 12.9069 0 13.0341 0 13.1667C0 13.2993 0.0526784 13.4265 0.146447 13.5202C0.240215 13.614 0.367392 13.6667 0.5 13.6667H9.5C9.63261 13.6667 9.75979 13.614 9.85355 13.5202C9.94732 13.4265 10 13.2993 10 13.1667C10 13.0341 9.94732 12.9069 9.85355 12.8131C9.75979 12.7194 9.63261 12.6667 9.5 12.6667H0.5Z" fill="#646970"/>
</svg>
