<svg width="48" height="48" viewBox="0 0 48 48" fill="none" xmlns="http://www.w3.org/2000/svg">
<path d="M45 29.385L38.565 22.95C38.284 22.6706 37.9038 22.5138 37.5075 22.5138C37.1112 22.5138 36.731 22.6706 36.45 22.95L28.5 30.885L19.065 21.45C18.784 21.1706 18.4038 21.0138 18.0075 21.0138C17.6112 21.0138 17.231 21.1706 16.95 21.45L3 35.385V4.5C3 4.10218 3.15804 3.72064 3.43934 3.43934C3.72064 3.15804 4.10218 3 4.5 3H31.5V0H4.5C3.30653 0 2.16193 0.474106 1.31802 1.31802C0.474106 2.16193 0 3.30653 0 4.5L0 43.5C0 44.6935 0.474106 45.8381 1.31802 46.682C2.16193 47.5259 3.30653 48 4.5 48H43.5C44.6935 48 45.8381 47.5259 46.682 46.682C47.5259 45.8381 48 44.6935 48 43.5V18H45V29.385Z" fill="#C3C4C7"/>
<path d="M15 12C15 13.1867 15.3519 14.3467 16.0112 15.3334C16.6705 16.3201 17.6075 17.0892 18.7039 17.5433C19.8003 17.9974 21.0067 18.1162 22.1705 17.8847C23.3344 17.6532 24.4035 17.0818 25.2426 16.2426C26.0818 15.4035 26.6532 14.3344 26.8847 13.1705C27.1162 12.0067 26.9974 10.8003 26.5433 9.7039C26.0892 8.60754 25.3201 7.67047 24.3334 7.01118C23.3467 6.35189 22.1867 6 21 6C19.4087 6 17.8826 6.63214 16.7574 7.75736C15.6321 8.88258 15 10.4087 15 12ZM24 12C24 12.5933 23.8241 13.1734 23.4944 13.6667C23.1648 14.1601 22.6962 14.5446 22.148 14.7716C21.5999 14.9987 20.9967 15.0581 20.4147 14.9424C19.8328 14.8266 19.2982 14.5409 18.8787 14.1213C18.4591 13.7018 18.1734 13.1672 18.0576 12.5853C17.9419 12.0033 18.0013 11.4001 18.2284 10.852C18.4554 10.3038 18.8399 9.83524 19.3333 9.50559C19.8266 9.17595 20.4067 9 21 9C21.7956 9 22.5587 9.31607 23.1213 9.87868C23.6839 10.4413 24 11.2044 24 12ZM42 6V0H39V6H33V9H39V15H42V9H48V6H42Z" fill="#C3C4C7"/>
</svg>
