<svg width="20" height="19" viewBox="0 0 20 19" fill="none" xmlns="http://www.w3.org/2000/svg">
<path d="M12.25 0C12.4312 7.6429e-06 12.6063 0.0656429 12.7429 0.184767C12.8795 0.303892 12.9684 0.468446 12.993 0.648L13 0.75V1.502C13 2.135 12.804 2.722 12.47 3.206C13.1671 3.44588 13.778 3.8859 14.2263 4.47105C14.6747 5.0562 14.9407 5.76053 14.991 6.496H15.247C15.8436 6.49335 16.4147 6.2539 16.8347 5.83028C17.2548 5.40666 17.4894 4.83357 17.487 4.237L17.481 2.752C17.4802 2.55309 17.5585 2.36201 17.6985 2.22079C17.8386 2.07958 18.0291 1.9998 18.228 1.999C18.4269 1.9982 18.618 2.07646 18.7592 2.21655C18.9004 2.35664 18.9802 2.54709 18.981 2.746L18.988 4.231C18.9921 5.1913 18.6277 6.11658 17.9698 6.81614C17.3119 7.5157 16.4107 7.93621 15.452 7.991L15.238 7.997L15 7.996V9.498H19.253C19.4344 9.49804 19.6096 9.56382 19.7462 9.68314C19.8828 9.80247 19.9716 9.96726 19.996 10.147L20.003 10.249C20.003 10.4302 19.9374 10.6053 19.8182 10.7419C19.6991 10.8785 19.5346 10.9674 19.355 10.992L19.253 10.999H15V12.998H15.238L15.452 13.005C16.3762 13.0579 17.2481 13.4508 17.9 14.1081C18.5519 14.7653 18.9376 15.6404 18.983 16.565L18.988 16.765L18.981 18.25C18.9792 18.4395 18.9058 18.6212 18.7755 18.7588C18.6453 18.8963 18.4677 18.9795 18.2787 18.9915C18.0896 19.0035 17.903 18.9436 17.7563 18.8236C17.6096 18.7037 17.5138 18.5327 17.488 18.345L17.481 18.243L17.488 16.758C17.4903 16.1879 17.276 15.6383 16.8887 15.2201C16.5013 14.8019 15.9696 14.5463 15.401 14.505L15.247 14.499H14.771C14.4514 15.5139 13.8164 16.4005 12.9584 17.0298C12.1004 17.6592 11.0641 17.9985 10 17.9985C8.93593 17.9985 7.89959 17.6592 7.04159 17.0298C6.18358 16.4005 5.54863 15.5139 5.229 14.499H4.74C4.14344 14.5016 3.57234 14.7411 3.15229 15.1647C2.73223 15.5883 2.49761 16.1614 2.5 16.758L2.505 18.243C2.50546 18.3415 2.48652 18.4391 2.44925 18.5303C2.41198 18.6214 2.35712 18.7044 2.28781 18.7744C2.21849 18.8443 2.13606 18.9 2.04525 18.9381C1.95443 18.9762 1.85699 18.996 1.7585 18.9965C1.66001 18.997 1.56239 18.978 1.47122 18.9408C1.38005 18.9035 1.29711 18.8486 1.22714 18.7793C1.15718 18.71 1.10155 18.6276 1.06343 18.5367C1.02531 18.4459 1.00546 18.3485 1.005 18.25L1 16.764C0.995861 15.8039 1.36016 14.8787 2.01783 14.1792C2.6755 13.4797 3.57644 13.059 4.535 13.004L4.75 12.999L5 12.998V10.998H0.75C0.568762 10.998 0.393658 10.9324 0.257069 10.8132C0.120481 10.6941 0.0316483 10.5296 0.00699997 10.35L0 10.249C7.6429e-06 10.0678 0.0656426 9.89266 0.184767 9.75607C0.303891 9.61948 0.468446 9.53065 0.648 9.506L0.75 9.499L5 9.498V7.996H4.75L4.535 7.991C3.611 7.93781 2.73932 7.54481 2.08765 6.8876C1.43598 6.2304 1.05036 5.35541 1.005 4.431L1 4.23L1.006 2.745C1.00566 2.55418 1.07807 2.37041 1.20847 2.23111C1.33888 2.09181 1.51748 2.00745 1.70791 1.99521C1.89833 1.98298 2.08626 2.04378 2.23342 2.16525C2.38058 2.28672 2.47591 2.45971 2.5 2.649L2.506 2.751L2.5 4.237C2.49749 4.80723 2.71158 5.35714 3.099 5.77556C3.48642 6.19398 4.01826 6.44969 4.587 6.491L4.741 6.497H5.009C5.05931 5.76129 5.32525 5.05671 5.7736 4.47124C6.22195 3.88577 6.83285 3.44536 7.53 3.205C7.22328 2.76363 7.04217 2.24726 7.006 1.711L7 1.502V0.75C7.00006 0.559977 7.07224 0.377059 7.20197 0.238209C7.3317 0.0993578 7.5093 0.0149261 7.69888 0.00197411C7.88846 -0.0109779 8.07589 0.0485155 8.2233 0.168433C8.37071 0.28835 8.4671 0.45975 8.493 0.648L8.5 0.75V1.502C8.49993 1.8873 8.64814 2.25786 8.91389 2.53684C9.17965 2.81583 9.54256 2.98185 9.92742 3.0005C10.3123 3.01914 10.6895 2.88898 10.981 2.63699C11.2725 2.385 11.4558 2.0305 11.493 1.647L11.5 1.502V0.75C11.5 0.551088 11.579 0.360322 11.7197 0.21967C11.8603 0.0790178 12.0511 0 12.25 0Z" fill="#7B90FF"/>
</svg>
