<svg width="16" height="16" viewBox="0 0 16 16" fill="none" xmlns="http://www.w3.org/2000/svg">
<path fill-rule="evenodd" clip-rule="evenodd" d="M3.87868 11.5L1.5 13.8787L1.5 2C1.5 1.72386 1.72386 1.5 2 1.5L14 1.5C14.2761 1.5 14.5 1.72386 14.5 2L14.5 11C14.5 11.2761 14.2761 11.5 14 11.5L3.87868 11.5ZM4.5 13L14 13C15.1046 13 16 12.1046 16 11L16 2C16 0.895434 15.1046 4.18151e-06 14 4.08494e-06L2 3.03587e-06C0.895432 2.9393e-06 1.32048e-06 0.895433 1.22392e-06 2L9.27259e-08 14.9393C4.15148e-08 15.5251 0.474874 16 1.06066 16C1.34196 16 1.61175 15.8883 1.81066 15.6893L4.5 13Z" fill="white"/>
</svg>
