<svg width="24" height="24" viewBox="0 0 24 24" fill="none" xmlns="http://www.w3.org/2000/svg">
<rect width="24" height="24" rx="12" fill="#646970"/>
<path d="M8.10157 7.57588L8.09977 8.84943V15.1506C8.09977 15.6676 8.30518 16.1635 8.6708 16.5292C9.03642 16.8948 9.53231 17.1002 10.0494 17.1002H15.2179C15.1248 17.3634 14.9524 17.5912 14.7244 17.7523C14.4965 17.9135 14.2242 18 13.945 18H10.0494C9.29367 18 8.5689 17.6998 8.03453 17.1654C7.50016 16.631 7.19995 15.9063 7.19995 15.1506V8.84943C7.19995 8.26155 7.57608 7.76065 8.10157 7.57588ZM15.4483 6C15.6256 6 15.8011 6.03491 15.9648 6.10274C16.1286 6.17057 16.2774 6.26999 16.4027 6.39533C16.528 6.52066 16.6275 6.66945 16.6953 6.83321C16.7631 6.99697 16.798 7.17248 16.798 7.34973V15.1482C16.798 15.3254 16.7631 15.5009 16.6953 15.6647C16.6275 15.8284 16.528 15.9772 16.4027 16.1026C16.2774 16.2279 16.1286 16.3273 15.9648 16.3952C15.8011 16.463 15.6256 16.4979 15.4483 16.4979H10.0494C9.69141 16.4979 9.3481 16.3557 9.09498 16.1026C8.84185 15.8495 8.69965 15.5061 8.69965 15.1482V7.34973C8.69965 6.99176 8.84185 6.64845 9.09498 6.39533C9.3481 6.1422 9.69141 6 10.0494 6H15.4483ZM15.4483 6.89982H10.0494C9.93006 6.89982 9.81562 6.94722 9.73125 7.0316C9.64687 7.11597 9.59947 7.23041 9.59947 7.34973V15.1482C9.59947 15.3965 9.80103 15.5981 10.0494 15.5981H15.4483C15.5676 15.5981 15.6821 15.5507 15.7664 15.4663C15.8508 15.3819 15.8982 15.2675 15.8982 15.1482V7.34973C15.8982 7.23041 15.8508 7.11597 15.7664 7.0316C15.6821 6.94722 15.5676 6.89982 15.4483 6.89982Z" fill="white"/>
</svg>
