<svg width="16" height="20" viewBox="0 0 16 20" fill="none" xmlns="http://www.w3.org/2000/svg">
<path d="M13.75 0.00781252C14.3201 0.00774248 14.869 0.224108 15.2858 0.613182C15.7025 1.00226 15.956 1.53502 15.995 2.10381L16 2.25781V17.7558C16.0001 18.3259 15.7837 18.8748 15.3946 19.2916C15.0056 19.7083 14.4728 19.9618 13.904 20.0008L13.75 20.0058H2.25C1.67987 20.0059 1.13098 19.7895 0.714247 19.4004C0.297514 19.0114 0.0440221 18.4786 0.00500013 17.9098L1.69987e-08 17.7558V2.25781C-7.00219e-05 1.68769 0.216295 1.13879 0.605369 0.722059C0.994443 0.305327 1.52721 0.0518346 2.096 0.0128126L2.25 0.00781252H13.75ZM3.75 5.00081C3.55109 5.00081 3.36032 5.07983 3.21967 5.22048C3.07902 5.36113 3 5.5519 3 5.75081C3 5.94972 3.07902 6.14049 3.21967 6.28114C3.36032 6.42179 3.55109 6.50081 3.75 6.50081H12.25C12.4489 6.50081 12.6397 6.42179 12.7803 6.28114C12.921 6.14049 13 5.94972 13 5.75081C13 5.5519 12.921 5.36113 12.7803 5.22048C12.6397 5.07983 12.4489 5.00081 12.25 5.00081H3.75ZM3 9.75081C3 10.1648 3.336 10.5008 3.75 10.5008H12.25C12.4489 10.5008 12.6397 10.4218 12.7803 10.2811C12.921 10.1405 13 9.94973 13 9.75081C13 9.5519 12.921 9.36114 12.7803 9.22048C12.6397 9.07983 12.4489 9.00081 12.25 9.00081H3.75C3.55109 9.00081 3.36032 9.07983 3.21967 9.22048C3.07902 9.36114 3 9.5519 3 9.75081ZM3.75 13.0008C3.55109 13.0008 3.36032 13.0798 3.21967 13.2205C3.07902 13.3611 3 13.5519 3 13.7508C3 13.9497 3.07902 14.1405 3.21967 14.2811C3.36032 14.4218 3.55109 14.5008 3.75 14.5008H12.25C12.4489 14.5008 12.6397 14.4218 12.7803 14.2811C12.921 14.1405 13 13.9497 13 13.7508C13 13.5519 12.921 13.3611 12.7803 13.2205C12.6397 13.0798 12.4489 13.0008 12.25 13.0008H3.75Z" fill="#7B90FF"/>
</svg>
