<svg width="18" height="11" viewBox="0 0 18 11" fill="none" xmlns="http://www.w3.org/2000/svg">
<path fill-rule="evenodd" clip-rule="evenodd" d="M12.5 5C13.8807 5 15 3.88071 15 2.5C15 1.11929 13.8807 0 12.5 0C11.1193 0 10 1.11929 10 2.5C10 3.88071 11.1193 5 12.5 5ZM12.5 3.5C13.0523 3.5 13.5 3.05228 13.5 2.5C13.5 1.94772 13.0523 1.5 12.5 1.5C11.9477 1.5 11.5 1.94772 11.5 2.5C11.5 3.05228 11.9477 3.5 12.5 3.5Z" fill="white"/>
<path d="M10.25 11V9C10.25 7.48122 9.01878 6.25 7.5 6.25H3.5C1.98122 6.25 0.75 7.48122 0.75 9V11H2.25V9C2.25 8.30964 2.80964 7.75 3.5 7.75H7.5C8.19036 7.75 8.75 8.30964 8.75 9V11H10.25Z" fill="white"/>
<path d="M17.25 9V11H15.75V9C15.75 8.30964 15.1904 7.75 14.5 7.75H12V6.25H14.5C16.0188 6.25 17.25 7.48122 17.25 9Z" fill="white"/>
<path fill-rule="evenodd" clip-rule="evenodd" d="M8 2.5C8 3.88071 6.88071 5 5.5 5C4.11929 5 3 3.88071 3 2.5C3 1.11929 4.11929 0 5.5 0C6.88071 0 8 1.11929 8 2.5ZM6.5 2.5C6.5 3.05228 6.05228 3.5 5.5 3.5C4.94772 3.5 4.5 3.05228 4.5 2.5C4.5 1.94772 4.94772 1.5 5.5 1.5C6.05228 1.5 6.5 1.94772 6.5 2.5Z" fill="white"/>
</svg>
