<svg width="16" height="16" viewBox="0 0 16 16" fill="none" xmlns="http://www.w3.org/2000/svg">
<path d="M8.66659 4.16667C8.66659 4.34348 8.59635 4.51305 8.47132 4.63807C8.3463 4.7631 8.17673 4.83333 7.99992 4.83333C7.82311 4.83333 7.65354 4.7631 7.52851 4.63807C7.40349 4.51305 7.33325 4.34348 7.33325 4.16667C7.33325 3.98986 7.40349 3.82029 7.52851 3.69526C7.65354 3.57024 7.82311 3.5 7.99992 3.5C8.17673 3.5 8.3463 3.57024 8.47132 3.69526C8.59635 3.82029 8.66659 3.98986 8.66659 4.16667Z" fill="#1D2327"/>
<path d="M8.688 1.54867C8.48826 1.40282 8.24733 1.32422 8 1.32422C7.75267 1.32422 7.51174 1.40282 7.312 1.54867L2.36467 5.15867C1.71267 5.634 2.04933 6.66534 2.85533 6.66534H3V10.532C2.69896 10.6856 2.44625 10.9195 2.26977 11.2077C2.0933 11.496 1.99994 11.8274 2 12.1653V13.1653C2 13.4407 2.224 13.6653 2.5 13.6653H13.5C13.6326 13.6653 13.7598 13.6127 13.8536 13.5189C13.9473 13.4251 14 13.2979 14 13.1653V12.1653C14.0001 11.8274 13.9067 11.496 13.7302 11.2077C13.5538 10.9195 13.301 10.6856 13 10.532V6.66534H13.1447C13.9513 6.66534 14.2867 5.634 13.6353 5.15867L8.688 1.548V1.54867ZM7.90133 2.356C7.92988 2.33515 7.96431 2.32391 7.99967 2.32391C8.03502 2.32391 8.06946 2.33515 8.098 2.356L12.6333 5.66534H3.36667L7.90133 2.356ZM12 6.66534V10.332H10.6667V6.66534H12ZM9.66667 6.66534V10.332H8.5V6.66534H9.66667ZM7.5 6.66534V10.332H6.33333V6.66534H7.5ZM3.83333 11.332H12.1667C12.6267 11.332 13 11.7053 13 12.1653V12.6653H3V12.1653C3 11.7053 3.37333 11.332 3.83333 11.332ZM4 10.332V6.66534H5.33333V10.332H4Z" fill="#1D2327"/>
</svg>
