<svg width="10" height="12" viewBox="0 0 10 12" fill="none" xmlns="http://www.w3.org/2000/svg">
<path fill-rule="evenodd" clip-rule="evenodd" d="M5.00016 0.666992C3.79069 0.666992 2.78181 1.52588 2.55017 2.66699H0.333496V3.66699H1.1801L1.72537 9.66502C1.81122 10.6093 2.60297 11.3324 3.55118 11.3324H6.44927C7.39748 11.3324 8.18923 10.6093 8.27508 9.66502L8.82035 3.66699H9.66683V2.66699H7.45015C7.21852 1.52587 6.20964 0.666992 5.00016 0.666992ZM5.00016 1.66699C4.34706 1.66699 3.79144 2.0844 3.58552 2.66699H6.41481C6.20889 2.0844 5.65327 1.66699 5.00016 1.66699ZM7.81623 3.66699H2.18422L2.72127 9.57449C2.76029 10.0037 3.12018 10.3324 3.55118 10.3324H6.44927C6.88028 10.3324 7.24016 10.0037 7.27918 9.57449L7.81623 3.66699Z" fill="#D63638"/>
</svg>
