<svg width="49" height="58" viewBox="0 0 49 58" fill="none" xmlns="http://www.w3.org/2000/svg">
<path d="M33.1519 22.0118C34.3786 18.2064 34.9999 14.8758 34.9999 12.0038C34.9999 5.60645 32.4959 0.675781 28.3332 0.675781C26.0746 0.675781 25.3759 2.02245 24.5012 5.33445C24.5466 5.16111 24.0666 7.02511 23.9279 7.52378C23.6586 8.48378 23.1892 10.1104 22.5226 12.4064C22.5045 12.4678 22.4775 12.5262 22.4426 12.5798L14.7999 24.5424C12.9915 27.3722 10.3229 29.5472 7.18658 30.7478L3.83458 32.0304C2.80949 32.423 1.9556 33.1644 1.42302 34.1242C0.890428 35.0841 0.713232 36.2009 0.922576 37.2784L2.75191 46.7131C2.97014 47.8387 3.50633 48.8782 4.29698 49.7086C5.08764 50.539 6.09966 51.1254 7.21324 51.3984L29.2132 56.7904C32.4561 57.5849 35.8815 57.0669 38.7445 55.349C41.6074 53.6311 43.6763 50.8524 44.5012 47.6171L48.6986 31.1558C48.9744 30.0731 48.9993 28.9417 48.7712 27.848C48.5431 26.7543 48.0681 25.7271 47.3825 24.845C46.6969 23.9628 45.8188 23.249 44.8152 22.758C43.8117 22.2669 42.7092 22.0117 41.5919 22.0118H33.1519Z" fill="#3858E9"/>
</svg>
